<svg xmlns="http://www.w3.org/2000/svg" viewBox="0 0 500 500">
  <!-- Header logo, light mode: served by chainlit/server.py get_logo()
       from public/logo_light.* (theme-aware, unlike /avatars).
       Color: tokens.css, token color accent family (light) #5570E8. -->
  <path fill="#5570E8" transform="matrix(1.13636 0 0 1.1236 -334.091 -285.393)" d="M420.655 292.669C434.364 290.512 450.644 296.518 462.504 303.576C493.341 321.928 502.519 369.75 470.372 391.653C463.058 396.637 454.913 400.188 447.387 405.589C437.529 412.678 429.13 421.602 422.649 431.87C408.736 453.906 404.786 482.387 410.69 507.632C417.01 534.265 433.659 557.293 456.97 571.64C480.748 586.3 509.402 590.84 536.546 584.247C563.234 577.793 586.291 561.058 600.7 537.686C614.639 515.149 619.058 487.997 612.983 462.203C604.558 427.384 585.211 408.939 555.325 392.732C530.766 379.414 527.874 344.789 542.388 321.865C551.096 307.948 565.016 298.099 581.037 294.518C602.089 289.794 621.956 295.064 639.877 306.375C640.222 306.605 640.567 306.834 640.912 307.064C657.9 318.913 669.423 337.084 672.896 357.504C675.836 375.877 674.427 403.489 674.44 422.745L674.49 465.128C674.5 481.907 674.998 498.958 671.267 515.414C662.465 554.237 632.065 580.243 604.662 606.498C581.164 629.011 560.664 654.549 526.359 659.624C502.252 663.153 477.732 656.954 458.199 642.391C449.307 635.746 432.707 618.983 423.955 610.693C392.151 580.57 357.148 552.528 351.078 506.057C349.584 494.62 349.924 483.989 349.926 472.504L349.926 430.036L349.943 388.779C349.96 363.717 349.132 344.378 365.644 323.299C380.149 304.782 397.57 295.908 420.655 292.669Z"/>
  <path fill="#5570E8" transform="matrix(1.13636 0 0 1.1236 -334.091 -285.393)" d="M504.772 431.746C533.398 427.772 559.803 447.817 563.672 476.457C567.54 505.098 547.398 531.429 518.743 535.192C490.238 538.935 464.073 518.92 460.225 490.429C456.377 461.937 476.295 435.699 504.772 431.746Z"/>
</svg>
